<svg xmlns="http://www.w3.org/2000/svg" xmlns:xlink="http://www.w3.org/1999/xlink" width="40" zoomAndPan="magnify" viewBox="0 0 30 30.000001" height="40" preserveAspectRatio="xMidYMid meet" version="1.0"><defs><clipPath id="764555bdf7"><path d="M 0.484375 1.199219 L 29.515625 1.199219 L 29.515625 28 L 0.484375 28 Z M 0.484375 1.199219 " clip-rule="nonzero"/></clipPath></defs><path fill="#009db7" d="M 22.300781 17.554688 C 22.289062 17.933594 22.140625 18.164062 21.835938 18.300781 C 21.519531 18.445312 21.273438 18.320312 21.074219 18.09375 C 20.960938 17.964844 20.886719 17.796875 20.800781 17.644531 C 20.585938 17.265625 20.273438 17 19.828125 17 C 19.398438 17.003906 19.046875 17.207031 18.832031 17.605469 C 18.769531 17.726562 18.707031 17.847656 18.628906 17.960938 C 18.386719 18.316406 18.046875 18.4375 17.726562 18.289062 C 17.375 18.128906 17.222656 17.789062 17.339844 17.371094 C 17.59375 16.46875 18.203125 15.90625 19.082031 15.644531 C 20.375 15.257812 21.839844 16.03125 22.226562 17.285156 C 22.257812 17.386719 22.285156 17.492188 22.300781 17.554688 Z M 22.300781 17.554688 " fill-opacity="1" fill-rule="nonzero"/><g clip-path="url(#764555bdf7)"><path fill="#009db7" d="M 29.507812 16.425781 C 29.5 15.210938 28.816406 14.359375 27.625 14.105469 C 27.367188 14.050781 27.269531 13.9375 27.207031 13.707031 C 26.382812 10.464844 23.089844 8.324219 20.261719 8.394531 C 18.777344 8.429688 17.292969 8.398438 15.746094 8.398438 C 15.746094 7.472656 15.742188 6.601562 15.757812 5.730469 C 15.757812 5.636719 15.882812 5.511719 15.980469 5.457031 C 16.769531 5.023438 17.300781 4.140625 17.195312 3.347656 C 17.066406 2.34375 16.542969 1.621094 15.566406 1.300781 C 15.375 1.242188 15.1875 1.207031 15 1.199219 C 14.8125 1.207031 14.625 1.242188 14.433594 1.300781 C 13.457031 1.621094 12.933594 2.34375 12.804688 3.347656 C 12.699219 4.140625 13.230469 5.023438 14.019531 5.457031 C 14.117188 5.511719 14.242188 5.636719 14.242188 5.730469 C 14.257812 6.601562 14.253906 7.472656 14.253906 8.398438 C 12.707031 8.398438 11.222656 8.429688 9.738281 8.394531 C 6.910156 8.324219 3.617188 10.464844 2.792969 13.707031 C 2.730469 13.9375 2.632812 14.050781 2.375 14.105469 C 1.183594 14.359375 0.5 15.210938 0.492188 16.425781 C 0.484375 17.421875 0.488281 18.417969 0.5 19.414062 C 0.511719 20.503906 1.21875 21.40625 2.285156 21.667969 C 2.550781 21.734375 2.65625 21.847656 2.71875 22.109375 C 3.476562 25.398438 6.515625 27.816406 9.886719 27.820312 C 11.589844 27.820312 13.296875 27.820312 15 27.820312 C 16.703125 27.820312 18.410156 27.820312 20.113281 27.820312 C 23.484375 27.816406 26.523438 25.398438 27.28125 22.109375 C 27.34375 21.847656 27.449219 21.734375 27.714844 21.667969 C 28.78125 21.40625 29.488281 20.503906 29.5 19.414062 C 29.511719 18.417969 29.515625 17.421875 29.507812 16.425781 Z M 25.96875 20.011719 C 25.953125 20.605469 25.878906 21.210938 25.726562 21.785156 C 25.074219 24.289062 22.996094 26.050781 20.417969 26.179688 C 18.613281 26.269531 16.804688 26.199219 15 26.195312 C 13.195312 26.199219 11.386719 26.269531 9.582031 26.179688 C 7.003906 26.050781 4.925781 24.289062 4.273438 21.785156 C 4.121094 21.210938 4.046875 20.605469 4.03125 20.011719 C 4 18.660156 4.011719 17.308594 4.023438 15.960938 C 4.050781 12.5625 6.652344 9.976562 10.050781 9.972656 C 11.703125 9.972656 13.351562 9.96875 15 9.96875 C 16.648438 9.96875 18.296875 9.972656 19.949219 9.972656 C 23.347656 9.976562 25.949219 12.5625 25.976562 15.960938 C 25.988281 17.308594 26 18.660156 25.96875 20.011719 Z M 25.96875 20.011719 " fill-opacity="1" fill-rule="nonzero"/></g><path fill="#009db7" d="M 18.457031 20.972656 C 18.132812 20.832031 17.765625 20.941406 17.511719 21.257812 C 17.496094 21.277344 17.476562 21.296875 17.464844 21.320312 C 16.96875 22.148438 16.003906 22.628906 15 22.65625 C 13.996094 22.628906 13.03125 22.148438 12.535156 21.320312 C 12.523438 21.296875 12.503906 21.277344 12.488281 21.257812 C 12.234375 20.941406 11.867188 20.832031 11.542969 20.972656 C 11.210938 21.117188 11.019531 21.492188 11.148438 21.898438 C 11.238281 22.171875 11.402344 22.441406 11.59375 22.660156 C 12.496094 23.691406 13.667969 24.132812 15 24.175781 C 16.332031 24.132812 17.503906 23.691406 18.40625 22.660156 C 18.597656 22.441406 18.761719 22.171875 18.851562 21.898438 C 18.980469 21.492188 18.789062 21.117188 18.457031 20.972656 Z M 18.457031 20.972656 " fill-opacity="1" fill-rule="nonzero"/><path fill="#009db7" d="M 12.289062 16.984375 C 12.300781 15.785156 11.375 14.84375 10.191406 14.835938 C 9.0625 14.832031 8.117188 15.78125 8.109375 16.921875 C 8.101562 18.152344 8.980469 19.066406 10.183594 19.070312 C 11.363281 19.074219 12.277344 18.167969 12.289062 16.984375 Z M 12.289062 16.984375 " fill-opacity="1" fill-rule="nonzero"/></svg>